<svg width="1922" height="862" viewBox="0 0 1922 862" fill="none" xmlns="http://www.w3.org/2000/svg">
<path d="M123.032 547C75.0193 543.8 21.672 585 1 606V302H1921V606C1879.99 638.667 1774.76 711.1 1681.94 739.5C1565.91 775 1574.91 579.5 1445.38 535.5C1315.84 491.5 1236.82 837 1171.8 857.5C1119.79 873.9 1085.12 829 1074.28 804.5C1023.27 700.833 905.035 490.8 840.219 480C775.402 469.2 718.687 487 667.674 589.5C618.627 688.047 585.208 693.544 522.638 703.835L521.636 704C458.419 714.4 392.102 665 309.58 620C227.059 575 171.044 550.2 123.032 547Z" fill="#4571AE" stroke="#4571AE"/>
<path d="M1922 302H1V0H1922V302Z" fill="#4571AE"/>
</svg>
